<svg id="draw.id" overflow="visible" v:layers="{&quot;default&quot;:{&quot;name&quot;:&quot;Default&quot;,&quot;print&quot;:1,&quot;display&quot;:1,&quot;publish&quot;:1},&quot;l9h5culz1ht&quot;:{&quot;name&quot;:&quot;back&quot;,&quot;print&quot;:1,&quot;display&quot;:1,&quot;publish&quot;:1}}" v:ver="5" x="500.5" xmlns="http://www.w3.org/2000/svg" xmlns:v="http://vecta.io" xmlns:xlink="http://www.w3.org/1999/xlink" y="500.5" v:stencils="{&quot;0&quot;:{&quot;id&quot;:&quot;stencil_65&quot;,&quot;expand&quot;:0,&quot;show_name&quot;:1}}"><style xmlns="http://www.w3.org/1999/xhtml"><![CDATA[#draw\.id{stroke:#000;stroke-linecap:round;stroke-linejoin:round;fill:#fff;fill-rule:evenodd;font-family:Roboto;font-size:14px;text-anchor:middle}#draw\.id text{paint-order:stroke;white-space:pre}#draw\.id .Text\.cls{stroke:none}]]></style><defs><style type="text/css">@import url('https://fonts.googleapis.com/css?family=Roboto+Condensed:400,400i,700,700i');@import url('https://fonts.googleapis.com/css?family=Roboto:400,400i,700,700i');@import url('https://fonts.googleapis.com/css?family=Cousine:400,400i,700,700i');@import url('https://fonts.googleapis.com/css?family=Anonymous+Pro:400,400i,700,700i');@import url('https://fonts.googleapis.com/css?family=Lato:400,400i,700,700i');@import url('https://fonts.googleapis.com/css?family=Open+Sans:400,400i,700,700i');</style></defs><title xmlns="http://www.w3.org/1999/xhtml">Link Editable</title><desc xmlns="http://www.w3.org/1999/xhtml"></desc><svg height="9524.409713745117" id="l972k7qg3d" overflow="visible" v:setup="{&quot;paper&quot;:&quot;A4&quot;,&quot;unit&quot;:&quot;px&quot;,&quot;scale&quot;:{&quot;from&quot;:1,&quot;to&quot;:1},&quot;width&quot;:1122.5197162628174,&quot;height&quot;:793.7008094787598}" viewBox="0 0 1122.5197162628174 793.7008094787598" width="13470.236595153809"><g id="l9h5cagi1hs" transform="translate(13 22)" class="l9h5culz1ht.lay" v:layer="{&quot;name&quot;:&quot;back&quot;,&quot;print&quot;:1,&quot;display&quot;:1,&quot;publish&quot;:1}"><rect x="0" y="0" width="46.5" height="41" fill="#fff" class="" stroke="none" stroke-opacity="0"/></g><g id="l9h5bwnpms" transform="translate(-0.0009999999999976694 -0.0009999999999976694)" class=""><path d="M 0 32.002 L 0 64.002 L 64.002 64.002 L 64.002 0 L 0 0 Z M 51.577 29.452 C 53.202 29.858 54.442 30.58 55.58 31.758 C 56.17 32.388 57.043 33.536 57.114 33.81 C 57.134 33.89 54.351 35.76 52.664 36.807 C 52.604 36.847 52.359 36.584 52.084 36.177 C 51.261 34.977 50.398 34.46 49.077 34.369 C 47.137 34.237 45.877 35.253 45.897 36.949 C 45.897 37.447 45.967 37.741 46.171 38.149 C 46.598 39.033 47.391 39.561 49.879 40.639 C 54.461 42.609 56.421 43.909 57.639 45.759 C 58.999 47.821 59.305 51.113 58.381 53.561 C 57.365 56.223 54.846 58.031 51.301 58.631 C 50.204 58.824 47.603 58.794 46.425 58.581 C 43.855 58.124 41.417 56.854 39.913 55.188 C 39.323 54.538 38.176 52.841 38.247 52.718 C 38.277 52.678 38.542 52.515 38.837 52.342 L 41.214 50.972 L 43.054 49.905 L 43.44 50.475 C 43.978 51.298 45.157 52.425 45.868 52.801 C 47.91 53.878 50.714 53.725 52.095 52.486 C 52.685 51.948 52.928 51.389 52.928 50.566 C 52.928 49.824 52.838 49.499 52.451 48.941 C 51.953 48.231 50.937 47.631 48.051 46.381 C 44.749 44.959 43.327 44.075 42.027 42.673 C 41.275 41.86 40.564 40.56 40.269 39.473 C 40.025 38.569 39.964 36.303 40.157 35.389 C 40.837 32.189 43.245 29.974 46.72 29.314 C 47.848 29.101 50.47 29.182 51.576 29.456 Z M 36.552 32.122 L 36.572 34.742 L 28.242 34.742 L 28.242 58.412 L 22.35 58.412 L 22.35 34.742 L 14.02 34.742 L 14.02 32.172 L 14.09 29.532 C 14.12 29.492 19.19 29.472 25.336 29.482 L 36.521 29.512 Z" stroke="none" stroke-linejoin="miter" stroke-linecap="butt" fill="#007acc" fill-rule="nonzero" stroke-width="0.9999999940395414"/></g></svg><svg id="l9a51224o2" height="396.8504047393799" overflow="visible" v:setup="{&quot;paper&quot;:&quot;A4&quot;,&quot;unit&quot;:&quot;px&quot;,&quot;scale&quot;:{&quot;from&quot;:1,&quot;to&quot;:1},&quot;width&quot;:1122.5197162628174,&quot;height&quot;:793.7008094787598}" viewBox="0 0 1122.5197162628174 793.7008094787598" width="561.2598581314087" class="" style="display: none;"/><svg id="l9a512ycp8" height="396.8504047393799" overflow="visible" v:setup="{&quot;paper&quot;:&quot;A4&quot;,&quot;unit&quot;:&quot;px&quot;,&quot;scale&quot;:{&quot;from&quot;:1,&quot;to&quot;:1},&quot;width&quot;:1122.5197162628174,&quot;height&quot;:793.7008094787598}" viewBox="0 0 1122.5197162628174 793.7008094787598" width="561.2598581314087" class="" style="display: none;"/></svg>